<svg width="18" height="19" viewBox="0 0 18 19" fill="none" xmlns="http://www.w3.org/2000/svg">
<g id="Group 21">
<path id="Star 1" d="M7.85677 1.273C8.54379 0.794385 9.45622 0.794386 10.1432 1.273L11.5334 2.24145C11.7704 2.40655 12.0403 2.51836 12.3246 2.56919L13.9924 2.86738C14.8166 3.01474 15.4618 3.65993 15.6092 4.48415L15.9074 6.15194C15.9582 6.43626 16.07 6.70619 16.2351 6.94317L17.2036 8.33333C17.6822 9.02035 17.6822 9.93278 17.2036 10.6198L16.2351 12.01C16.07 12.2469 15.9582 12.5169 15.9074 12.8012L15.6092 14.469C15.4618 15.2932 14.8166 15.9384 13.9924 16.0857L12.3246 16.3839C12.0403 16.4348 11.7704 16.5466 11.5334 16.7117L10.1432 17.6801C9.45621 18.1587 8.54378 18.1587 7.85677 17.6801L6.46661 16.7117C6.22963 16.5466 5.95969 16.4348 5.67538 16.3839L4.00759 16.0857C3.18337 15.9384 2.53818 15.2932 2.39082 14.469L2.09263 12.8012C2.04179 12.5169 1.92998 12.2469 1.76489 12.01L0.796434 10.6198C0.317823 9.93278 0.317823 9.02035 0.796434 8.33333L1.76489 6.94317C1.92998 6.70619 2.04179 6.43626 2.09263 6.15194L2.39082 4.48415C2.53818 3.65993 3.18337 3.01474 4.00759 2.86738L5.67538 2.56919C5.95969 2.51836 6.22963 2.40655 6.46661 2.24145L7.85677 1.273Z" fill="url(#paint0_linear_77_2587)"/>
<g id="Group">
<path id="Vector" d="M12.6965 7.96084L8.55198 12.1051C8.24508 12.4121 7.74722 12.4121 7.44002 12.1051L5.30058 9.96549C4.99356 9.65853 4.99356 9.16062 5.30058 8.85359C5.60766 8.54651 6.10548 8.54651 6.41243 8.85347L7.99617 10.4372L11.5845 6.84888C11.8916 6.54179 12.3894 6.54203 12.6964 6.84888C13.0034 7.1559 13.0034 7.65364 12.6965 7.96084Z" fill="white"/>
</g>
</g>
<defs>
<linearGradient id="paint0_linear_77_2587" x1="0.72" y1="1.31656" x2="9" y2="18.4766" gradientUnits="userSpaceOnUse">
<stop stop-color="#8BF9D5"/>
<stop offset="1" stop-color="#4EDAAC"/>
</linearGradient>
</defs>
</svg>
